<mxfile host="app.diagrams.net" modified="2022-04-26T11:59:45.897Z" agent="5.0 (Windows NT 10.0; Win64; x64) AppleWebKit/537.36 (KHTML, like Gecko) Chrome/100.0.4896.127 Safari/537.36" etag="ketQ5dJpG61KZkGiRi_H" version="17.4.6" type="github">
  <diagram id="zVz8hgJ6c6et2yKOTF47" name="Page-1">
    <mxGraphModel dx="1824" dy="969" grid="1" gridSize="10" guides="1" tooltips="1" connect="1" arrows="1" fold="1" page="1" pageScale="1" pageWidth="827" pageHeight="1169" math="0" shadow="0">
      <root>
        <mxCell id="0" />
        <mxCell id="1" parent="0" />
        <mxCell id="nbutXsBGKnJb9Uugoemd-1" value="客户端" style="rounded=1;whiteSpace=wrap;html=1;" vertex="1" parent="1">
          <mxGeometry x="70" y="40" width="100" height="40" as="geometry" />
        </mxCell>
        <mxCell id="nbutXsBGKnJb9Uugoemd-2" value="服务器" style="rounded=1;whiteSpace=wrap;html=1;" vertex="1" parent="1">
          <mxGeometry x="430" y="40" width="100" height="40" as="geometry" />
        </mxCell>
        <mxCell id="nbutXsBGKnJb9Uugoemd-4" value="" style="endArrow=none;dashed=1;html=1;rounded=0;exitX=0.5;exitY=1;exitDx=0;exitDy=0;" edge="1" parent="1" source="nbutXsBGKnJb9Uugoemd-1">
          <mxGeometry width="50" height="50" relative="1" as="geometry">
            <mxPoint x="240" y="300" as="sourcePoint" />
            <mxPoint x="120" y="400" as="targetPoint" />
          </mxGeometry>
        </mxCell>
        <mxCell id="nbutXsBGKnJb9Uugoemd-7" value="" style="endArrow=classic;html=1;rounded=0;" edge="1" parent="1">
          <mxGeometry width="50" height="50" relative="1" as="geometry">
            <mxPoint x="130" y="120" as="sourcePoint" />
            <mxPoint x="470" y="120" as="targetPoint" />
          </mxGeometry>
        </mxCell>
        <mxCell id="nbutXsBGKnJb9Uugoemd-8" value="1.登录：向服务器发送username和password" style="edgeLabel;html=1;align=center;verticalAlign=middle;resizable=0;points=[];" vertex="1" connectable="0" parent="nbutXsBGKnJb9Uugoemd-7">
          <mxGeometry x="-0.172" y="2" relative="1" as="geometry">
            <mxPoint x="21" y="-8" as="offset" />
          </mxGeometry>
        </mxCell>
        <mxCell id="nbutXsBGKnJb9Uugoemd-9" value="" style="endArrow=none;dashed=1;html=1;rounded=0;entryX=0.5;entryY=1;entryDx=0;entryDy=0;" edge="1" parent="1" target="nbutXsBGKnJb9Uugoemd-2">
          <mxGeometry width="50" height="50" relative="1" as="geometry">
            <mxPoint x="480" y="400" as="sourcePoint" />
            <mxPoint x="350" y="80" as="targetPoint" />
          </mxGeometry>
        </mxCell>
        <mxCell id="nbutXsBGKnJb9Uugoemd-11" value="" style="curved=1;endArrow=classic;html=1;rounded=0;" edge="1" parent="1">
          <mxGeometry width="50" height="50" relative="1" as="geometry">
            <mxPoint x="490" y="120" as="sourcePoint" />
            <mxPoint x="490" y="200" as="targetPoint" />
            <Array as="points">
              <mxPoint x="530" y="130" />
              <mxPoint x="530" y="190" />
            </Array>
          </mxGeometry>
        </mxCell>
        <mxCell id="nbutXsBGKnJb9Uugoemd-12" value="2.验证身份并根据密钥生成JWT" style="edgeLabel;html=1;align=center;verticalAlign=middle;resizable=0;points=[];" vertex="1" connectable="0" parent="nbutXsBGKnJb9Uugoemd-11">
          <mxGeometry x="-0.0674" y="-1" relative="1" as="geometry">
            <mxPoint x="91" y="5" as="offset" />
          </mxGeometry>
        </mxCell>
        <mxCell id="nbutXsBGKnJb9Uugoemd-13" value="" style="endArrow=classic;html=1;rounded=0;" edge="1" parent="1">
          <mxGeometry width="50" height="50" relative="1" as="geometry">
            <mxPoint x="470" y="200" as="sourcePoint" />
            <mxPoint x="130" y="200" as="targetPoint" />
          </mxGeometry>
        </mxCell>
        <mxCell id="nbutXsBGKnJb9Uugoemd-14" value="3.将生成的JWT返回给客户端" style="edgeLabel;html=1;align=center;verticalAlign=middle;resizable=0;points=[];" vertex="1" connectable="0" parent="nbutXsBGKnJb9Uugoemd-13">
          <mxGeometry x="0.1958" y="1" relative="1" as="geometry">
            <mxPoint x="33" y="-11" as="offset" />
          </mxGeometry>
        </mxCell>
        <mxCell id="nbutXsBGKnJb9Uugoemd-15" value="" style="endArrow=classic;html=1;rounded=0;" edge="1" parent="1">
          <mxGeometry width="50" height="50" relative="1" as="geometry">
            <mxPoint x="130" y="280" as="sourcePoint" />
            <mxPoint x="470" y="280" as="targetPoint" />
          </mxGeometry>
        </mxCell>
        <mxCell id="nbutXsBGKnJb9Uugoemd-16" value="4.发送请求时在请求头中携带JWT信息" style="edgeLabel;html=1;align=center;verticalAlign=middle;resizable=0;points=[];" vertex="1" connectable="0" parent="nbutXsBGKnJb9Uugoemd-15">
          <mxGeometry x="-0.172" y="2" relative="1" as="geometry">
            <mxPoint x="21" y="-8" as="offset" />
          </mxGeometry>
        </mxCell>
        <mxCell id="nbutXsBGKnJb9Uugoemd-17" value="" style="curved=1;endArrow=classic;html=1;rounded=0;" edge="1" parent="1">
          <mxGeometry width="50" height="50" relative="1" as="geometry">
            <mxPoint x="490" y="280" as="sourcePoint" />
            <mxPoint x="490" y="360" as="targetPoint" />
            <Array as="points">
              <mxPoint x="530" y="290" />
              <mxPoint x="530" y="350" />
            </Array>
          </mxGeometry>
        </mxCell>
        <mxCell id="nbutXsBGKnJb9Uugoemd-18" value="5.检查JWT签名，同时从JWT中获取用户信息" style="edgeLabel;html=1;align=center;verticalAlign=middle;resizable=0;points=[];" vertex="1" connectable="0" parent="nbutXsBGKnJb9Uugoemd-17">
          <mxGeometry x="-0.0674" y="-1" relative="1" as="geometry">
            <mxPoint x="131" y="5" as="offset" />
          </mxGeometry>
        </mxCell>
        <mxCell id="nbutXsBGKnJb9Uugoemd-19" value="" style="endArrow=classic;html=1;rounded=0;" edge="1" parent="1">
          <mxGeometry width="50" height="50" relative="1" as="geometry">
            <mxPoint x="470" y="360" as="sourcePoint" />
            <mxPoint x="130" y="360" as="targetPoint" />
          </mxGeometry>
        </mxCell>
        <mxCell id="nbutXsBGKnJb9Uugoemd-20" value="6.将请求结果响应给客户端" style="edgeLabel;html=1;align=center;verticalAlign=middle;resizable=0;points=[];" vertex="1" connectable="0" parent="nbutXsBGKnJb9Uugoemd-19">
          <mxGeometry x="0.1958" y="1" relative="1" as="geometry">
            <mxPoint x="33" y="-11" as="offset" />
          </mxGeometry>
        </mxCell>
      </root>
    </mxGraphModel>
  </diagram>
</mxfile>
